<svg width="30" height="30" viewBox="0 0 30 30" fill="none" xmlns="http://www.w3.org/2000/svg">
<g clip-path="url(#clip0)">
<path d="M20.4425 28.9625C20.4675 28.955 20.4912 28.945 20.5162 28.9363C35.785 22.87 31.5612 0 15 0C6.68875 0 0 6.775 0 15C0 25.4087 10.5425 32.8363 20.4425 28.9625ZM6.60125 25.0737C7.66625 23.2838 11.1125 18.2337 16.995 16.4912C18.225 19.6275 19.0875 23.2862 19.1725 27.435C14.715 28.9338 10.0137 27.925 6.60125 25.0737ZM21.0162 26.6525C20.8525 22.6663 20.0387 19.1313 18.8787 16.0687C21.4812 15.6625 24.4937 15.9338 27.91 17.3025C27.1837 21.3787 24.5775 24.805 21.0162 26.6525ZM28.1062 15.3638C24.3437 13.95 21.0275 13.7737 18.1575 14.3212C17.7137 13.3212 17.2475 12.36 16.7537 11.475C21.1575 9.71625 23.76 7.5725 24.925 6.4375C26.9812 8.8175 28.2025 11.8988 28.1062 15.3638ZM23.5937 5.1025C22.5337 6.11125 20.0375 8.14875 15.7687 9.815C13.6762 6.505 11.4387 4.17 10.0212 2.8625C14.5562 0.995 19.7862 1.7925 23.5937 5.1025ZM8.22875 3.77875C9.29875 4.72 11.6475 6.98 13.9137 10.475C10.8012 11.4775 6.89875 12.2137 2.1525 12.3175C2.9075 8.7 5.1625 5.635 8.22875 3.77875ZM1.915 14.2C7.2275 14.1137 11.5275 13.275 14.9262 12.14C15.3962 12.9637 15.8425 13.8612 16.2712 14.7937C10.3525 16.6788 6.65375 21.545 5.2375 23.7425C2.9525 21.1925 1.6925 17.865 1.915 14.2Z" fill="#344678"/>
</g>
<defs>
<clipPath id="clip0">
<rect width="30" height="30" fill="white"/>
</clipPath>
</defs>
</svg>
