<svg width="50" height="34" viewBox="0 0 50 34" fill="none" xmlns="http://www.w3.org/2000/svg">
<path fill-rule="evenodd" clip-rule="evenodd" d="M12.3636 32C18.0873 32 22.7273 27.36 22.7273 21.6364C22.7273 15.9127 18.0873 11.2727 12.3636 11.2727C6.63996 11.2727 2 15.9127 2 21.6364C2 27.36 6.63996 32 12.3636 32ZM12.3636 34C19.1919 34 24.7273 28.4646 24.7273 21.6364C24.7273 14.8081 19.1919 9.27273 12.3636 9.27273C5.53539 9.27273 0 14.8081 0 21.6364C0 28.4646 5.53539 34 12.3636 34ZM37.0909 32C42.8146 32 47.4545 27.36 47.4545 21.6364C47.4545 15.9127 42.8146 11.2727 37.0909 11.2727C31.3672 11.2727 26.7273 15.9127 26.7273 21.6364C26.7273 27.36 31.3672 32 37.0909 32ZM37.0909 34C43.9192 34 49.4545 28.4646 49.4545 21.6364C49.4545 14.8081 43.9192 9.27273 37.0909 9.27273C30.2627 9.27273 24.7273 14.8081 24.7273 21.6364C24.7273 28.4646 30.2627 34 37.0909 34ZM24.7273 22.7273C30.451 22.7273 35.0909 18.0873 35.0909 12.3636C35.0909 6.63996 30.451 2 24.7273 2C19.0036 2 14.3636 6.63996 14.3636 12.3636C14.3636 18.0873 19.0036 22.7273 24.7273 22.7273ZM24.7273 24.7273C31.5555 24.7273 37.0909 19.1919 37.0909 12.3636C37.0909 5.53539 31.5555 0 24.7273 0C17.899 0 12.3636 5.53539 12.3636 12.3636C12.3636 19.1919 17.899 24.7273 24.7273 24.7273Z" />
</svg>
