<svg width="30" height="30" viewBox="0 0 30 30" fill="none" xmlns="http://www.w3.org/2000/svg">
<path d="M9.37546 24.7852H5.2739V11.543H9.37546V24.7852ZM9.7847 7.32399C9.7847 5.99808 8.70895 4.92188 7.38373 4.92188C6.05347 4.92188 4.98047 5.99808 4.98047 7.32399C4.98047 8.65036 6.05347 9.72656 7.38373 9.72656C8.70895 9.72656 9.7847 8.65036 9.7847 7.32399ZM24.7266 17.4998C24.7266 13.9451 23.9756 11.3086 19.823 11.3086C17.8276 11.3086 16.4882 12.3065 15.9414 13.3443H15.9375V11.543H11.9531V24.7852H15.9375V18.2103C15.9375 16.4884 16.3758 14.8203 18.5101 14.8203C20.6154 14.8203 20.6836 16.7894 20.6836 18.3197V24.7852H24.7266V17.4998ZM30 26.4844V3.51562C30 1.577 28.423 0 26.4844 0H3.51562C1.577 0 0 1.577 0 3.51562V26.4844C0 28.423 1.577 30 3.51562 30H26.4844C28.423 30 30 28.423 30 26.4844ZM26.4844 2.34375C27.1305 2.34375 27.6562 2.86949 27.6562 3.51562V26.4844C27.6562 27.1305 27.1305 27.6562 26.4844 27.6562H3.51562C2.86949 27.6562 2.34375 27.1305 2.34375 26.4844V3.51562C2.34375 2.86949 2.86949 2.34375 3.51562 2.34375H26.4844Z" fill="#344678"/>
</svg>
