<svg width="30" height="30" viewBox="0 0 30 30" fill="none" xmlns="http://www.w3.org/2000/svg">
<g clip-path="url(#clip0)">
<path d="M11.192 27.3072C9.89475 27.3072 8.55946 27.2022 7.21616 26.9916C4.85022 26.6204 2.45521 25.3828 1.77749 25.0122L0 24.0404L1.92443 23.4075C4.02808 22.7159 5.30775 22.2867 6.89183 21.6147C5.30569 20.8466 4.08324 19.4648 3.49478 17.6786L3.04709 16.3195L3.41422 16.3756C3.06609 16.0247 2.7912 15.6686 2.57811 15.3447C1.82029 14.1937 1.41906 12.7872 1.50443 11.5819L1.58866 10.3956L2.29888 10.6707C1.99927 10.1049 1.78275 9.50068 1.6555 8.86737C1.34536 7.32287 1.60491 5.68202 2.38654 4.24716L3.00521 3.11145L3.83261 4.10525C6.44941 7.24871 9.76383 9.11342 13.6976 9.6593C13.5369 8.55174 13.6573 7.48286 14.0558 6.52476C14.5197 5.40919 15.3451 4.46322 16.4419 3.78894C17.66 3.04026 19.1372 2.67749 20.6013 2.76744C22.1548 2.86288 23.5651 3.44493 24.6853 4.45178C25.2323 4.30964 25.6354 4.15789 26.1801 3.95282C26.5078 3.82945 26.8795 3.68937 27.3446 3.52916L29.0585 2.93864L27.9409 6.13063C28.0146 6.12445 28.0906 6.11918 28.17 6.11575L30.0001 6.03289L28.9184 7.51124C28.8564 7.59593 28.8406 7.61996 28.8186 7.65315C28.7314 7.78453 28.6229 7.94795 27.1382 9.93052C26.7665 10.427 26.5809 11.0736 26.6154 11.7515C26.747 14.3278 26.4309 16.6587 25.6754 18.6793C24.9608 20.5909 23.8535 22.2311 22.3846 23.5543C20.5668 25.1912 18.2489 26.3121 15.495 26.8852C14.1442 27.1662 12.6935 27.3072 11.192 27.3072Z" />
</g>
<defs>
<clipPath id="clip0">
<rect width="30" height="30" fill="white"/>
</clipPath>
</defs>
</svg>
