<svg xmlns="http://www.w3.org/2000/svg" width="213.295" height="52.606" viewBox="0 0 213.295 52.606">
  <g id="_54gene_Logo" data-name="54gene_Logo" transform="translate(-551.3 -786.127)">
    <path id="Path_435" data-name="Path 435" d="M783,841.047h6.6a4.716,4.716,0,0,0,1.54,3.575,5.046,5.046,0,0,0,3.575,1.174,5.582,5.582,0,0,0,4.253-1.54,7.223,7.223,0,0,0,1.461-4.749,6.134,6.134,0,0,0-1.54-4.462,5.256,5.256,0,0,0-4.175-1.644,5.645,5.645,0,0,0-2.609.574,4.462,4.462,0,0,0-1.853,1.748l-6.21-.287,2.218-18.109h16.309a3.633,3.633,0,0,1,2.375,1.07,3.231,3.231,0,0,1,1.018,2.427v2.322H791.141l-.861,6.5a6.19,6.19,0,0,1,2.531-1.252,11.383,11.383,0,0,1,3.288-.5,10.834,10.834,0,0,1,11.455,11.351,11.574,11.574,0,0,1-3.5,8.82q-3.405,3.21-9.316,3.21c-3.679,0-6.524-.861-8.533-2.609a10.493,10.493,0,0,1-3.21-7.62Z" transform="translate(-171.239 -23.059)" fill="#7a797a"/>
    <path id="Path_436" data-name="Path 436" d="M899.839,838.268V823.55l-9.29,14.717Zm-.1,12.682v-7.463H885.2v-6l12.682-19.858h5.036a3.231,3.231,0,0,1,2.427,1.018,3.764,3.764,0,0,1,1.07,2.375v17.066h3.966v5.428h-3.966v7.437Z" transform="translate(-246.771 -23.28)" fill="#7a797a"/>
    <path id="Path_437" data-name="Path 437" d="M994.776,858c0,4.462,1.3,6.941,3.888,7.411q3.875.744,5.715-1.8a7.324,7.324,0,0,0,1.253-3.34,14.56,14.56,0,0,0,.052-4.514,9.035,9.035,0,0,0-1.592-3.966,4.218,4.218,0,0,0-3.679-1.748q-3.288,0-4.462,2.427A12.572,12.572,0,0,0,994.776,858Zm11.064,11.142V867.5a7.47,7.47,0,0,1-4.7,3.392,9.681,9.681,0,0,1-5.871-.5,10.973,10.973,0,0,1-4.984-4.306,14.8,14.8,0,0,1-2.088-8.3c0-3.992.913-7.254,2.766-9.733s4.8-3.731,8.872-3.731a15.737,15.737,0,0,1,8.637,2.531c2.635,1.67,3.966,4.775,3.966,9.316v13.673c0,4.514-1.331,7.62-3.966,9.263a16.129,16.129,0,0,1-8.637,2.479q-8.924,0-11.038-8.324h7.072a5.055,5.055,0,0,0,2.375,2.088,4.939,4.939,0,0,0,3.21.391,5.287,5.287,0,0,0,2.9-1.879,8.377,8.377,0,0,0,1.487-4.723Z" transform="translate(-322.894 -43.013)" fill="#7a797a"/>
    <path id="Path_438" data-name="Path 438" d="M1093.963,855.33h9.89a6.318,6.318,0,0,0-1.357-3.888,4.6,4.6,0,0,0-3.575-1.357,4.739,4.739,0,0,0-3.5,1.357,5.656,5.656,0,0,0-1.461,3.888ZM1105.6,862.9h4.854a10.579,10.579,0,0,1-4.071,6.21,12.332,12.332,0,0,1-7.567,2.218,10.806,10.806,0,0,1-8.611-3.575c-2.061-2.322-3.105-5.662-3.105-9.968,0-4.123.992-7.359,3-9.681,2.061-2.4,4.932-3.575,8.637-3.575,3.888,0,6.889,1.174,9,3.5,2.061,2.4,3.105,5.715,3.105,9.968v1.07a1.465,1.465,0,0,1-.1.678h-16.753a6.562,6.562,0,0,0,1.461,4.462,4.528,4.528,0,0,0,3.784,1.54,5.631,5.631,0,0,0,2.818-.678,1.287,1.287,0,0,0,.522-.339l.522-.522a2.264,2.264,0,0,1,.731-.783,2.532,2.532,0,0,1,1.774-.522Z" transform="translate(-395.987 -43.161)" fill="#7a797a"/>
    <path id="Path_439" data-name="Path 439" d="M1208.393,870.682H1205a3.289,3.289,0,0,1-2.375-.913,3.146,3.146,0,0,1-.913-2.375V854.217a3.986,3.986,0,0,0-1.409-3.392,5.127,5.127,0,0,0-3.157-1.07,4.928,4.928,0,0,0-3.105,1.07,4.032,4.032,0,0,0-1.357,3.392v16.466H1185.9V855.574c0-4.384,1.148-7.332,3.444-8.82a15.037,15.037,0,0,1,7.62-2.427,14.6,14.6,0,0,1,7.854,2.218c2.4,1.487,3.575,4.488,3.575,9v15.135Z" transform="translate(-469.005 -43.013)" fill="#7a797a"/>
    <path id="Path_440" data-name="Path 440" d="M1284.663,855.33h9.89a6.317,6.317,0,0,0-1.357-3.888,4.6,4.6,0,0,0-3.575-1.357,4.74,4.74,0,0,0-3.5,1.357,5.656,5.656,0,0,0-1.461,3.888ZM1296.3,862.9h4.854a10.58,10.58,0,0,1-4.071,6.21,12.333,12.333,0,0,1-7.567,2.218,10.806,10.806,0,0,1-8.611-3.575c-2.062-2.322-3.105-5.662-3.105-9.968,0-4.123.992-7.359,3-9.681,2.061-2.4,4.932-3.575,8.611-3.575,3.888,0,6.889,1.174,9,3.5,2.061,2.4,3.105,5.715,3.105,9.968v1.07a1.465,1.465,0,0,1-.1.678h-16.753a6.563,6.563,0,0,0,1.461,4.462,4.529,4.529,0,0,0,3.784,1.54,5.631,5.631,0,0,0,2.818-.678,1.286,1.286,0,0,0,.522-.339l.522-.522a2.264,2.264,0,0,1,.731-.783,2.649,2.649,0,0,1,1.8-.522Z" transform="translate(-536.925 -43.161)" fill="#7a797a"/>
    <path id="Path_441" data-name="Path 441" d="M586.151,792.1a5.976,5.976,0,1,1-5.976-5.976,5.975,5.975,0,0,1,5.976,5.976Z" transform="translate(-16.924)" fill="#f05883"/>
    <path id="Path_442" data-name="Path 442" d="M686.951,947.9a5.976,5.976,0,1,1-5.976-5.976,5.975,5.975,0,0,1,5.976,5.976Z" transform="translate(-91.421 -115.145)" fill="#f05883"/>
    <path id="Path_443" data-name="Path 443" d="M647.051,807.7a5.976,5.976,0,1,1-5.976-5.976,5.975,5.975,0,0,1,5.976,5.976Z" transform="translate(-61.933 -11.529)" fill="#7dc572"/>
    <path id="Path_444" data-name="Path 444" d="M580.651,853.5a5.976,5.976,0,1,1-5.976-5.976,5.975,5.975,0,0,1,5.976,5.976Z" transform="translate(-12.86 -45.378)" fill="#7dc572"/>
    <path id="Path_445" data-name="Path 445" d="M605.978,824.627,591.6,835.691l2.818,2.27,13.439-9.759Z" transform="translate(-29.784 -28.454)" fill="#7dc572"/>
    <path id="Path_446" data-name="Path 446" d="M626.451,932.3a5.976,5.976,0,1,1-5.976-5.976,5.975,5.975,0,0,1,5.976,5.976Z" transform="translate(-46.708 -103.616)" fill="#3f4c77"/>
    <path id="Path_447" data-name="Path 447" d="M698.851,886.5a5.976,5.976,0,1,1-5.976-5.976,5.975,5.975,0,0,1,5.976,5.976Z" transform="translate(-100.216 -69.767)" fill="#3f4c77"/>
    <path id="Path_448" data-name="Path 448" d="M651.778,900.727,637.4,911.791l2.818,2.27,13.439-9.733Z" transform="translate(-63.633 -84.696)" fill="#3f4c77"/>
    <path id="Path_449" data-name="Path 449" d="M709.851,821.4a5.976,5.976,0,1,1-5.976-5.976,5.975,5.975,0,0,1,5.976,5.976Z" transform="translate(-108.346 -21.654)" fill="#f6bd17"/>
    <path id="Path_450" data-name="Path 450" d="M563.251,920.4a5.976,5.976,0,1,1-5.976-5.976,5.975,5.975,0,0,1,5.976,5.976Z" transform="translate(0 -94.821)" fill="#f6bd17"/>
    <path id="Path_451" data-name="Path 451" d="M602.52,831.427,563.3,859.113l2.818,2.27,38.28-26.355Z" transform="translate(-8.869 -33.48)" fill="#f6bd17"/>
  </g>
</svg>
