<svg width="22" height="27" viewBox="0 0 22 27" fill="none" xmlns="http://www.w3.org/2000/svg">
<path d="M14.1742 10.3198H9.95851V3.18072H14.1742C16.1456 3.18072 17.7436 4.77875 17.7436 6.75011C17.7436 8.72172 16.1456 10.3198 14.1742 10.3198V10.3198ZM14.462 0.000171124H5.09595V13.5003H14.462C18.1899 13.5003 21.2119 10.4782 21.2119 6.75011C21.2119 3.02223 18.1899 0.000171124 14.462 0.000171124" fill="url(#paint0_linear)"/>
<path d="M6.71931 -8.39928e-06H5.54382V27H6.71931C7.47964 27 8.09543 26.207 8.09543 25.2295V1.77047C8.09543 0.792429 7.47964 -8.39928e-06 6.71931 -8.39928e-06Z" fill="#512B58"/>
<path d="M3.26714 1.29474C3.08681 1.59619 2.96202 1.93607 2.91331 2.30359L0.0236799 23.9956C-0.188251 25.5865 1.04937 27 2.65452 27H4.47344H5.54389V-8.39928e-06C4.58427 -8.39928e-06 3.73366 0.514153 3.26714 1.29474" fill="#2C003E"/>
<defs>
<linearGradient id="paint0_linear" x1="5.09595" y1="6.75011" x2="21.2119" y2="6.75011" gradientUnits="userSpaceOnUse">
<stop stop-color="#EA9085"/>
<stop offset="0.994382" stop-color="#F9AD2A"/>
<stop offset="1" stop-color="#FFA372"/>
</linearGradient>
</defs>
</svg>
